PathFileType	4	(X/Y/Z)	61_1_51_p1_0-363_filt_butterworth.trc
DataRate	CameraRate	NumFrames	NumMarkers	Units	OrigDataRate	OrigDataStartFrame	OrigNumFrames
48.0	48.0	6	27	m	48.0	226	363
Frame#	Time	RHip			RKnee			RAnkle			RBigToe			RSmallToe			RHeel			LHip			LKnee			LAnkle			LBigToe			LSmallToe			LHeel			Neck			Head			Nose			RShoulder			RElbow			RWrist			RThumb			RIndex			RPinky			LShoulder			LElbow			LWrist			LThumb			LIndex			LPinky			
		X1	Y1	Z1	X2	Y2	Z2	X3	Y3	Z3	X4	Y4	Z4	X5	Y5	Z5	X6	Y6	Z6	X7	Y7	Z7	X8	Y8	Z8	X9	Y9	Z9	X10	Y10	Z10	X11	Y11	Z11	X12	Y12	Z12	X13	Y13	Z13	X14	Y14	Z14	X15	Y15	Z15	X16	Y16	Z16	X17	Y17	Z17	X18	Y18	Z18	X19	Y19	Z19	X20	Y20	Z20	X21	Y21	Z21	X22	Y22	Z22	X23	Y23	Z23	X24	Y24	Z24	X25	Y25	Z25	X26	Y26	Z26	X27	Y27	Z27	
226	4.708333333333333	0.3185617273452272	0.7098564315029655	0.8565586715113267	0.3286655738081272	0.26687307157824736	0.8965296520095347	0.30894387277137336	-0.13881797907157808	0.9098656540269751	0.30432693218956836	-0.1476579988453308	0.6877703200200019	0.3645858312743886	-0.1373852360622356	0.7145775253492967	0.27946877930505	-0.192923301854022	0.9612107065680694	0.1119183615244665	0.7049255247306796	0.8282870428712517	0.10655208292182278	0.2743213163737988	0.8535669829659842	0.11007173580312966	-0.13571266082755046	0.8770510903166046	0.15010166902660288	-0.14419244706469478	0.6871624867621375	0.07932814249057112	-0.1485684479842887	0.7379955658483038	0.1368252249287101	-0.1964329366019063	0.9475051916160075	0.2397373164734295	1.2614778762820693	0.7958278827393022	0.2357179738099346	1.5105591671811769	0.7626446247197431	0.24033273122719495	1.3803284168042145	0.6583653231076994	0.3903278228006849	1.1686598026940087	0.8207043511603236	0.3921760036322671	0.9262562762397477	0.7918667081564401	0.29675704914055734	0.7268497136728286	0.6530585545174628	0.18703081625750403	0.6214994920307101	0.6984154847137624	0.1917743880576056	0.6121563304041381	0.6923516093945754	0.22062312755078362	0.6186583376687862	0.6661598992587034	0.06910608451675246	1.1777346719644066	0.8375015027276449	0.05869732685791103	0.9179522463337633	0.751998302725851	0.1353505443422956	0.7258388911655619	0.6783185040267132	0.21500930426479586	0.6485770476545502	0.6684956176628587	0.21720772316837028	0.6224395857092131	0.667723939275544	0.20410252362462852	0.6198221671970197	0.6655892457609168	
227	4.729166666666667	0.31841712117274	0.7102409656957824	0.855374943820975	0.3288428890702188	0.26703948760811097	0.8962287953319543	0.30834903763797383	-0.1404813623714467	0.9108943469085	0.30409889921202565	-0.14658116228707022	0.6879745238082484	0.36449935043184833	-0.13651330189080713	0.713869924281707	0.27996175168411297	-0.1938538358517213	0.9613881328428865	0.11160660745717972	0.7045272057244611	0.8296729197683814	0.10626458358285501	0.27526333530576497	0.8522265391531505	0.10990344463707445	-0.135720113912834	0.876939233531136	0.14969108435822348	-0.14172980397008456	0.6847772100320765	0.07937793199039582	-0.14881277899539852	0.7383564643509833	0.1370949460235462	-0.19620063204745603	0.9464367000109929	0.2407505329303782	1.261941199203273	0.793406391490528	0.23663446898529494	1.510820173029347	0.7599564493651861	0.24086364885228273	1.380349607477589	0.6584423940737114	0.3910757822131967	1.1684437095186608	0.8184314469668486	0.3918180088615991	0.924881577133954	0.7898793421853927	0.296576615042961	0.7267670344257603	0.6519004596108373	0.1865846615089563	0.6218656305621924	0.6974443399857714	0.1914383607158525	0.6120009928868935	0.6928224456811152	0.22062466759602511	0.6180445654056009	0.6646936831064374	0.06913666906252931	1.177729620895855	0.8375016029677387	0.058710766775292474	0.9179223213592874	0.7520715294505549	0.1342250161658174	0.7258100895016991	0.6779939206642438	0.21441784630208158	0.6490624660161323	0.6663111727512399	0.21728289812171175	0.6227434983185482	0.6664801201878828	0.2040248566507179	0.6195665889795267	0.6658924985163961	
228	4.75	0.318408600075203	0.7103832987742401	0.8545114204226043	0.32911793365487657	0.26721003969169466	0.8959105915127713	0.30795441890240627	-0.1418911684210932	0.9117002637280208	0.3037885359339841	-0.1450682042926757	0.6875630084181918	0.3644507784462211	-0.1358938456839735	0.7129863937305998	0.28037356740356706	-0.1946711017353844	0.9616642324936892	0.11108936669769734	0.7039248163794674	0.8311692867324787	0.10599143706329159	0.27621838613338145	0.8509220287093536	0.10986743956841279	-0.13557554005971356	0.8769873610158908	0.14935270308152201	-0.13987063725082355	0.6827219819256831	0.07935358458142247	-0.148687504152924	0.7381214282276188	0.1373995162340866	-0.1959103656198305	0.9453028718613884	0.24156271690867032	1.2623161776801834	0.7914861016153942	0.23737424479713812	1.5111178451146208	0.75779271236708	0.24164753846639841	1.38040257898344	0.6583041310009128	0.39145073806759245	1.1681400375183908	0.8172063243929757	0.3913894602109148	0.9230128466218979	0.788004501025059	0.29651753872672587	0.725917310449131	0.6516522170018206	0.18647868923949185	0.6215490840569377	0.6960525239813391	0.19128068778173013	0.6119852976840181	0.6916182849337829	0.22069552138174034	0.6169194529249205	0.6629537635587411	0.0691585860290741	1.1777469281263417	0.8374933604256118	0.05869651796127924	0.9178432021462889	0.7521637430432582	0.13355811274775437	0.7263415420893511	0.6763277004261854	0.2141744631862273	0.6498196400624513	0.6641669919072589	0.2173665079630665	0.6234016355256943	0.663621902231327	0.2039393719266419	0.6192140336265025	0.6661700497876617	
229	4.770833333333333	0.3184490669316578	0.7103874917850699	0.853786649402464	0.329434127533837	0.267475369703136	0.8953909039601655	0.30774843885513664	-0.14304217767641703	0.9124244880453567	0.3033167383246098	-0.14299591288494223	0.6861429997424958	0.36442577999212655	-0.1355892710983746	0.7121390665333286	0.2807032765944341	-0.19535185795767396	0.9620325952334993	0.11051399669943779	0.7032446629386626	0.8327266736518749	0.10577799079019687	0.27707249878409074	0.8497388372101359	0.10996356346314717	-0.13522910952870276	0.8771283315999207	0.14914619065725593	-0.1390423040305216	0.6813503405219368	0.07921116705980583	-0.14793503794398177	0.7368966640776935	0.13765659240677128	-0.19553652668007054	0.944082283816405	0.24202909122018074	1.262530443188214	0.7904154260169045	0.2378257528983439	1.5114854384937457	0.7567047282001012	0.24260035359683896	1.3804851691530673	0.6579016131727387	0.39136760466141407	1.1677749133441973	0.8173120263945387	0.3909496636987059	0.9210221628788771	0.7861892306652856	0.2965204387544599	0.724617575250192	0.6518999880360898	0.18707327514905586	0.6212950807331189	0.6922914879060802	0.19168942647977066	0.6122179073522679	0.6878725969282451	0.22085014841437026	0.6152171147826175	0.6611473851774655	0.06917022387656006	1.177750233289946	0.8374852973880988	0.058635424549170416	0.9177400228955872	0.7522741749989333	0.13313149576029992	0.7273977641378594	0.6735079946341089	0.21440746334130906	0.6508665092627406	0.6616233517385677	0.2173972359408095	0.6243828461504253	0.6595024470471967	0.20379495607823908	0.6189340667487931	0.6658275181934417	
230	4.791666666666667	0.3184480840270869	0.710344604377846	0.852903556021664	0.3297394756680022	0.2679347689498959	0.8944693258960168	0.3077120000411722	-0.14388295195606327	0.9130652737328397	0.30274055407938216	-0.14059515053667945	0.6839206333082745	0.36439439775201665	-0.13543433155115914	0.7115303566170992	0.2809811701304114	-0.1960131010191558	0.9625220531375384	0.11006137562455352	0.7025372480608392	0.8343762669679768	0.10566889134830962	0.27781910358665307	0.8487907024804077	0.11011988129319211	-0.1346981953459812	0.8772474199816009	0.14909851315627393	-0.139048974659657	0.6809178756468229	0.07896467681989974	-0.14662159204127373	0.7347988989482593	0.13782715124032224	-0.19510897270565855	0.9428321850874397	0.24210498252806933	1.2625610805104988	0.7903001212529949	0.23788015281056824	1.5119164797137141	0.7566438181367179	0.24368689153388573	1.3806201411074541	0.6572680778728	0.3911033449030839	1.167498758028705	0.8182434530314375	0.3906122680021511	0.9194726465596884	0.7840661757067888	0.2965164978805748	0.7231444883367885	0.6520743287663677	0.18826806774337596	0.6217489272938086	0.6848607468448835	0.19273232725357453	0.6127650307154574	0.6817782481216594	0.22134606906129212	0.6122791329356531	0.6599494867110077	0.06917615063178756	1.177737046517958	0.8374673310302194	0.058535747787756984	0.9177012048489062	0.7523874162715866	0.13281251246027692	0.7287182356329104	0.669840148204296	0.21493710734520788	0.652086630050756	0.6581578579532578	0.21727922103444697	0.6256835011242371	0.6545585514362525	0.20347659655010986	0.6188239770111108	0.6645995426526561	
231	4.8125	0.31843910179990725	0.7101315020797475	0.851886961002878	0.330014739961667	0.26861024997790595	0.8931229701398122	0.3078433693195557	-0.14425094617319628	0.9132817802820254	0.30216915799710686	-0.13821252010224014	0.6813601498273828	0.3643349507632877	-0.13525323272649545	0.7112181795129504	0.2812096498572306	-0.19674869911251486	0.963144719161348	0.1097486421657735	0.7017151265106972	0.8361755213349602	0.1056490456107741	0.2785029875579613	0.8481200193851439	0.11026070970548896	-0.1339889910937947	0.8772966859241879	0.149155329626818	-0.13934490210915337	0.6811364918988608	0.07863615128472534	-0.14490335163847545	0.7320695619585986	0.13789875178191285	-0.19464010807127535	0.9416108396813595	0.24195558046468602	1.2624877457136432	0.7907279932004619	0.23762694510929683	1.512391581995584	0.7570836838176751	0.2448238711392095	1.3807574465090307	0.6567847093445163	0.39114138644150875	1.1674981336474106	0.8188510658415293	0.39046047173113074	0.9186638508639461	0.7815052573632976	0.29652397600231334	0.7213859116573125	0.6524152263855487	0.19004140626463578	0.6227863285502528	0.6741580968509985	0.19431745682586726	0.6134501380875765	0.6740693197940739	0.2228981772834443	0.6074118870300256	0.6598711495633162	0.06919055893619623	1.1777151047060153	0.8374086716820828	0.05844214836355734	0.9177419163412405	0.7524578032029674	0.13273568825289744	0.7299804500453189	0.6654488817597126	0.2154657576320951	0.6532934631175118	0.6535734823597633	0.21708343874006492	0.6273448018732886	0.6489166183033155	0.20306118814227486	0.6188275294224547	0.6624541459859477	
